<svg xmlns="http://www.w3.org/2000/svg" width="604" height="326" fill="none" viewBox="0 0 604 326">
  <path fill="#FFB800" d="M0 0h604v326H0V0Z"/>
  <path fill="#000" d="M75.558 179.544c.853-1.28 2.261-2.475 4.224-3.584s3.883-1.707 5.76-1.792c.256 2.389.939 4.821 2.048 7.296 1.11 2.389 2.688 4.565 4.736 6.528 2.133 1.877 4.736 3.456 7.808 4.736 3.072 1.195 6.741 1.792 11.008 1.792 6.229 0 11.179-1.579 14.848-4.736 3.669-3.243 5.504-7.467 5.504-12.672 0-4.949-1.28-9.045-3.84-12.288-2.56-3.243-7.211-5.717-13.952-7.424l-12.032-3.072a80.137 80.137 0 0 1-8.704-2.688c-2.73-1.024-5.12-2.347-7.168-3.968a18.943 18.943 0 0 1-4.864-6.144c-1.11-2.475-1.664-5.461-1.664-8.96 0-3.499.853-6.869 2.56-10.112 1.707-3.243 4.053-6.101 7.04-8.576 3.072-2.56 6.613-4.608 10.624-6.144 4.096-1.536 8.491-2.304 13.184-2.304s8.704.597 12.032 1.792c3.328 1.195 6.016 2.645 8.064 4.352 2.048 1.707 3.541 3.584 4.48 5.632 1.024 1.963 1.621 3.712 1.792 5.248-.597 1.195-1.707 2.304-3.328 3.328-1.621.939-3.499 1.536-5.632 1.792-.341-1.877-.981-3.712-1.92-5.504-.939-1.877-2.304-3.541-4.096-4.992-1.707-1.536-3.84-2.773-6.4-3.712-2.56-.939-5.589-1.408-9.088-1.408-5.803 0-10.453 1.536-13.952 4.608-3.499 2.987-5.248 6.955-5.248 11.904 0 2.816.427 5.163 1.28 7.04a13.474 13.474 0 0 0 3.584 4.608c1.536 1.195 3.328 2.176 5.376 2.944a66.337 66.337 0 0 0 6.912 2.048l11.264 2.816c4.693 1.195 8.576 2.645 11.648 4.352 3.157 1.707 5.632 3.584 7.424 5.632 1.792 2.048 3.029 4.309 3.712 6.784a24.11 24.11 0 0 1 1.152 7.424c0 3.84-.811 7.509-2.432 11.008-1.621 3.499-3.968 6.613-7.04 9.344-3.072 2.645-6.784 4.779-11.136 6.4-4.267 1.536-9.088 2.304-14.464 2.304-5.205 0-9.728-.683-13.568-2.048s-7.04-3.072-9.6-5.12c-2.56-2.133-4.523-4.48-5.888-7.04-1.28-2.56-1.963-5.035-2.048-7.424Zm85.718-45.184a17.31 17.31 0 0 1 4.736-1.664 28.7 28.7 0 0 1 5.376-.512v11.392c1.195-1.451 2.645-2.901 4.352-4.352a31.821 31.821 0 0 1 5.76-4.096c2.133-1.28 4.48-2.304 7.04-3.072 2.56-.768 5.291-1.152 8.192-1.152 4.437 0 8.363.768 11.776 2.304 3.413 1.451 6.272 3.541 8.576 6.272 2.304 2.645 4.053 5.803 5.248 9.472 1.195 3.669 1.792 7.68 1.792 12.032 0 5.632-.981 10.923-2.944 15.872-1.963 4.864-4.693 9.131-8.192 12.8-3.413 3.584-7.509 6.443-12.288 8.576-4.693 2.048-9.813 3.072-15.36 3.072-2.987 0-5.632-.341-7.936-1.024-2.304-.597-4.309-1.365-6.016-2.304v32.128c-1.195.683-2.773 1.152-4.736 1.408-1.877.341-3.669.512-5.376.512V134.36Zm30.592 3.84c-4.011 0-7.893 1.195-11.648 3.584-3.669 2.389-6.613 5.419-8.832 9.088v34.944c2.219 3.157 4.992 5.504 8.32 7.04 3.328 1.451 6.955 2.176 10.88 2.176 3.243 0 6.229-.597 8.96-1.792 2.816-1.195 5.248-2.987 7.296-5.376 2.048-2.475 3.669-5.547 4.864-9.216 1.195-3.669 1.792-7.979 1.792-12.928 0-9.131-1.877-16-5.632-20.608-3.755-4.608-9.088-6.912-16-6.912Zm56.79 27.776c.256 4.608 1.067 8.661 2.432 12.16 1.451 3.413 3.285 6.272 5.504 8.576 2.219 2.304 4.779 4.053 7.68 5.248 2.987 1.109 6.144 1.664 9.472 1.664 4.181 0 7.765-.555 10.752-1.664 3.072-1.109 5.845-2.859 8.32-5.248 1.195.256 2.005 1.067 2.432 2.432-.597.939-1.579 2.091-2.944 3.456-1.28 1.365-3.029 2.688-5.248 3.968-2.133 1.28-4.736 2.347-7.808 3.2-2.987.939-6.485 1.408-10.496 1.408-4.267 0-8.235-.768-11.904-2.304a27.775 27.775 0 0 1-9.6-6.656c-2.731-2.901-4.907-6.485-6.528-10.752-1.536-4.267-2.304-9.088-2.304-14.464 0-4.949.853-9.6 2.56-13.952 1.707-4.437 4.011-8.277 6.912-11.52 2.987-3.243 6.443-5.803 10.368-7.68 4.011-1.963 8.277-2.944 12.8-2.944 4.864 0 8.875.811 12.032 2.432s5.632 3.712 7.424 6.272a22.344 22.344 0 0 1 3.84 8.448c.768 3.072 1.152 6.059 1.152 8.96-.683 1.024-1.621 1.92-2.816 2.688a13.612 13.612 0 0 1-3.712 1.792l-40.32 4.48Zm19.072-29.312c-2.645 0-5.12.469-7.424 1.408-2.304.939-4.309 2.389-6.016 4.352-1.707 1.963-3.115 4.48-4.224 7.552-1.024 3.072-1.579 6.784-1.664 11.136l36.096-3.712c.085-.427.128-.853.128-1.28v-1.152c0-2.645-.341-5.077-1.024-7.296-.683-2.219-1.749-4.139-3.2-5.76-1.365-1.621-3.115-2.901-5.248-3.84-2.048-.939-4.523-1.408-7.424-1.408Zm102.869 57.6c-.256.427-.683.939-1.28 1.536a17.705 17.705 0 0 1-1.792 1.792c-.683.512-1.451.981-2.304 1.408-.768.427-1.493.725-2.176.896-2.731-.171-5.035-1.195-6.912-3.072-1.877-1.963-2.901-4.523-3.072-7.68-.683 1.28-1.707 2.645-3.072 4.096-1.365 1.365-3.029 2.645-4.992 3.84-1.877 1.109-4.053 2.005-6.528 2.688-2.475.768-5.163 1.152-8.064 1.152-6.059 0-10.88-1.536-14.464-4.608-3.499-3.072-5.248-7.168-5.248-12.288 0-5.291 2.005-9.728 6.016-13.312 4.011-3.584 10.88-6.229 20.608-7.936l15.232-2.688v-4.992c0-6.144-1.451-10.837-4.352-14.08-2.816-3.243-7.04-4.864-12.672-4.864-3.499 0-6.485.896-8.96 2.688-2.389 1.707-3.584 4.267-3.584 7.68 0 1.536.512 2.901 1.536 4.096-.768 1.024-2.005 1.963-3.712 2.816-1.707.853-3.456 1.365-5.248 1.536-.427-.427-.939-1.067-1.536-1.92-.597-.853-.896-2.005-.896-3.456 0-2.645.768-5.12 2.304-7.424 1.536-2.304 3.541-4.267 6.016-5.888 2.475-1.707 5.333-3.029 8.576-3.968 3.243-.939 6.613-1.408 10.112-1.408 8.192 0 13.995 1.877 17.408 5.632 3.413 3.669 5.12 8.832 5.12 15.488v32.128c0 3.499.768 5.931 2.304 7.296 1.536 1.28 3.328 2.048 5.376 2.304l.256.512Zm-36.096-.128c4.437 0 8.192-1.024 11.264-3.072 3.157-2.048 5.419-4.693 6.784-7.936v-18.432l-17.152 3.072c-4.608.853-8.149 2.304-10.624 4.352-2.389 2.048-3.584 4.992-3.584 8.832 0 4.267 1.28 7.552 3.84 9.856 2.645 2.219 5.803 3.328 9.472 3.328Zm52.654-91.776a17.31 17.31 0 0 1 4.736-1.664 28.7 28.7 0 0 1 5.376-.512v63.232c2.56-1.536 5.163-3.371 7.808-5.504a101.037 101.037 0 0 0 8.064-7.04 146.607 146.607 0 0 0 8.064-8.192 185.304 185.304 0 0 0 7.552-9.088c.853-.512 2.005-.896 3.456-1.152a24.997 24.997 0 0 1 4.352-.384c1.451 0 2.645.128 3.584.384-1.707 2.304-3.797 4.736-6.272 7.296a164.552 164.552 0 0 1-7.808 7.552 203.237 203.237 0 0 1-8.064 6.912c-2.731 2.219-5.248 4.139-7.552 5.76 2.219.427 4.096 1.493 5.632 3.2 1.621 1.707 3.456 3.925 5.504 6.656l10.624 14.208a404.246 404.246 0 0 0 3.84 5.12 239.42 239.42 0 0 0 3.072 3.712 86.796 86.796 0 0 0 2.56 2.688 18.193 18.193 0 0 0 2.432 2.048v.64c-1.109.597-2.731 1.024-4.864 1.28s-3.883.384-5.248.384c-1.109-.427-2.389-1.365-3.84-2.816-1.365-1.536-3.243-3.925-5.632-7.168l-10.88-14.976a175.143 175.143 0 0 0-3.2-4.224c-.853-1.195-1.707-2.133-2.56-2.816-.768-.683-1.579-1.195-2.432-1.536-.768-.341-1.664-.512-2.688-.512a7.032 7.032 0 0 0-2.944.64 11.94 11.94 0 0 0-2.56 1.28v30.208c-1.195.683-2.773 1.152-4.736 1.408-1.877.341-3.669.512-5.376.512V102.36Z"/>
  <path stroke="#000" d="M462 231.934c17.377-61.082 7.24-116.942 0-137.236m16.126 137.236c17.881-61.228 7.451-117.222 0-137.565"/>
  <path stroke="#000" d="M462.263 94.969c6.582-1.58 13.494-.878 16.126-.33m-16.06 137.05c6.582 1.58 13.493.878 16.126.33"/>
  <path fill="#000" d="m463 231 15-55.5c-.166-7.805-3.376-34.702-14.873-80H464l14.5-.5v1.5l4.5 16 4 25.5 1 32c-.667 9.167-2.2 29-3 35-.8 6-5 20.5-7 27-.833.167-3.5.5-7.5.5s-6.667-1-7.5-1.5Z"/>
  <path fill="#000" d="m468.5 94 9.5.5V96l-6 6-8-1.5-1.5-5.5 6-1ZM462 231.5l3.5 1L474 220l5.5-26.5 2.5-32-10.5-44-5-8 3.5 20 1.5 26-.5 29-5 32-4 15Z"/>
  <path stroke="#000" d="M492 242.814c20.259-71.214 8.441-136.339 0-160m18.801 160c20.847-71.385 8.686-136.666 0-160.384"/>
  <path stroke="#000" d="M492.307 83.13c7.674-1.843 15.731-1.024 18.801-.384m-18.724 159.783c7.674 1.841 15.731 1.023 18.801.383"/>
  <path fill="#000" d="m514.5 96-2.5-9.5-1.5.5 1.5 7 2.5 3v-1Zm35.5-7.5-4.5-15H544l1.5 4 4 11.5.5-.5Z"/>
  <path fill="#000" d="m493.166 241.725 17.488-64.706c-.194-9.099-3.936-40.458-17.34-93.27h1.018l16.905-.583v1.749l5.246 18.654 4.664 29.73 1.166 37.308c-.777 10.687-2.565 33.81-3.498 40.805-.933 6.995-5.829 23.901-8.161 31.479-.972.194-4.081.583-8.744.583-4.664 0-7.773-1.166-8.744-1.749Z"/>
  <path fill="#000" d="m499.578 82 11.076.583v1.749l-6.995 6.995-9.327-1.749-1.749-6.412L499.578 82ZM492 242.308l4.081 1.166 9.91-14.574 6.412-30.895 2.915-37.308-12.242-51.299-5.83-9.327 4.081 23.318 1.749 30.312-.583 33.811-5.829 37.308L492 242.308Z"/>
  <path stroke="#000" d="M523 255.68c23.392-82.225 9.747-157.421 0-184.74m21.708 184.74c24.071-82.422 10.03-157.798 0-185.184"/>
  <path stroke="#000" d="M523.354 71.304c8.861-2.127 18.164-1.182 21.709-.443m-21.62 184.49c8.861 2.127 18.164 1.182 21.708.443"/>
  <path fill="#000" d="m524.346 254.423 20.192-74.711c-.223-10.507-4.545-46.715-20.021-107.693h1.175l19.52-.673v2.02l6.057 21.538 5.385 34.327L558 172.308c-.897 12.339-2.962 39.038-4.038 47.115-1.077 8.077-6.731 27.596-9.424 36.346-1.121.225-4.711.673-10.096.673-5.384 0-8.974-1.346-10.096-2.019Z"/>
  <path fill="#000" d="m531.75 70 12.788.673v2.02l-8.076 8.076-10.77-2.019-2.019-7.404L531.75 70ZM523 255.096l4.712 1.346 11.442-16.827 7.404-35.673 3.365-43.077-14.135-59.23-6.73-10.77 4.711 26.923 2.019 35-.673 39.039-6.73 43.077L523 255.096ZM495.5 89.5H494l1 3.5h1.5l-1-3.5Z"/>
  <path fill="#000" d="m529.5 92-3-14-1 .5L529 92h.5Zm4.5 27v-3h-1l.5 3h.5Zm20.5-6.5-1-6.5h-1l1 7 1-.5Z"/>
</svg>
